<svg width="160" height="25" viewBox="0 0 160 25" fill="none" xmlns="http://www.w3.org/2000/svg">
<path d="M8 24V3.648H0.128V1.6H18.24V3.648H10.368V24H8ZM26.641 24.16C25.0197 24.16 23.5583 23.7973 22.257 23.072C20.977 22.3253 19.9637 21.312 19.217 20.032C18.4703 18.7307 18.097 17.248 18.097 15.584C18.097 13.8987 18.4703 12.416 19.217 11.136C19.9637 9.856 20.977 8.85333 22.257 8.128C23.537 7.40267 24.9983 7.04 26.641 7.04C28.305 7.04 29.777 7.40267 31.057 8.128C32.3583 8.85333 33.3717 9.856 34.097 11.136C34.8437 12.416 35.217 13.8987 35.217 15.584C35.217 17.248 34.8437 18.7307 34.097 20.032C33.3717 21.312 32.3583 22.3253 31.057 23.072C29.7557 23.7973 28.2837 24.16 26.641 24.16ZM26.641 22.144C27.857 22.144 28.9343 21.8773 29.873 21.344C30.8117 20.7893 31.5477 20.0213 32.081 19.04C32.6357 18.0373 32.913 16.8853 32.913 15.584C32.913 14.2613 32.6357 13.1093 32.081 12.128C31.5477 11.1467 30.8117 10.3893 29.873 9.856C28.9343 9.30133 27.8677 9.024 26.673 9.024C25.4783 9.024 24.4117 9.30133 23.473 9.856C22.5343 10.3893 21.7877 11.1467 21.233 12.128C20.6783 13.1093 20.401 14.2613 20.401 15.584C20.401 16.8853 20.6783 18.0373 21.233 19.04C21.7877 20.0213 22.5343 20.7893 23.473 21.344C24.4117 21.8773 25.4677 22.144 26.641 22.144ZM38.92 16.32V14.336H47.304V16.32H38.92ZM52.8668 24V1.6H61.9868C64.3761 1.6 66.4668 2.08 68.2588 3.04C70.0721 3.97867 71.4801 5.29067 72.4828 6.976C73.4854 8.66133 73.9868 10.6027 73.9868 12.8C73.9868 14.9973 73.4854 16.9387 72.4828 18.624C71.4801 20.3093 70.0721 21.632 68.2588 22.592C66.4668 23.5307 64.3761 24 61.9868 24H52.8668ZM55.2348 21.952H61.8588C63.8428 21.952 65.5601 21.568 67.0108 20.8C68.4828 20.0107 69.6241 18.9333 70.4348 17.568C71.2454 16.1813 71.6508 14.592 71.6508 12.8C71.6508 10.9867 71.2454 9.39733 70.4348 8.032C69.6241 6.66667 68.4828 5.6 67.0108 4.832C65.5601 4.04267 63.8428 3.648 61.8588 3.648H55.2348V21.952ZM85.6723 24.16C84.0509 24.16 82.5896 23.7973 81.2883 23.072C80.0083 22.3253 78.9949 21.312 78.2483 20.032C77.5016 18.7307 77.1283 17.248 77.1283 15.584C77.1283 13.8987 77.5016 12.416 78.2483 11.136C78.9949 9.856 80.0083 8.85333 81.2883 8.128C82.5683 7.40267 84.0296 7.04 85.6723 7.04C87.3363 7.04 88.8083 7.40267 90.0883 8.128C91.3896 8.85333 92.4029 9.856 93.1283 11.136C93.8749 12.416 94.2483 13.8987 94.2483 15.584C94.2483 17.248 93.8749 18.7307 93.1283 20.032C92.4029 21.312 91.3896 22.3253 90.0883 23.072C88.7869 23.7973 87.3149 24.16 85.6723 24.16ZM85.6723 22.144C86.8883 22.144 87.9656 21.8773 88.9043 21.344C89.8429 20.7893 90.5789 20.0213 91.1123 19.04C91.6669 18.0373 91.9443 16.8853 91.9443 15.584C91.9443 14.2613 91.6669 13.1093 91.1123 12.128C90.5789 11.1467 89.8429 10.3893 88.9043 9.856C87.9656 9.30133 86.8989 9.024 85.7043 9.024C84.5096 9.024 83.4429 9.30133 82.5043 9.856C81.5656 10.3893 80.8189 11.1467 80.2643 12.128C79.7096 13.1093 79.4323 14.2613 79.4323 15.584C79.4323 16.8853 79.7096 18.0373 80.2643 19.04C80.8189 20.0213 81.5656 20.7893 82.5043 21.344C83.4429 21.8773 84.4989 22.144 85.6723 22.144ZM107.742 24V1.6H110.11V21.952H122.654V24H107.742ZM126.106 24V7.2H128.378V24H126.106ZM127.258 3.488C126.788 3.488 126.394 3.328 126.074 3.008C125.754 2.688 125.594 2.304 125.594 1.856C125.594 1.408 125.754 1.03466 126.074 0.735998C126.394 0.415998 126.788 0.255999 127.258 0.255999C127.727 0.255999 128.122 0.405332 128.442 0.703999C128.762 1.00267 128.922 1.376 128.922 1.824C128.922 2.29333 128.762 2.688 128.442 3.008C128.143 3.328 127.748 3.488 127.258 3.488ZM139.211 24.16C137.825 24.16 136.513 23.968 135.275 23.584C134.038 23.1787 133.067 22.6773 132.363 22.08L133.387 20.288C134.07 20.8 134.945 21.248 136.011 21.632C137.078 21.9947 138.198 22.176 139.371 22.176C140.971 22.176 142.123 21.9307 142.827 21.44C143.531 20.928 143.883 20.256 143.883 19.424C143.883 18.8053 143.681 18.3253 143.275 17.984C142.891 17.6213 142.379 17.3547 141.739 17.184C141.099 16.992 140.385 16.832 139.595 16.704C138.806 16.576 138.017 16.4267 137.227 16.256C136.459 16.0853 135.755 15.84 135.115 15.52C134.475 15.1787 133.953 14.72 133.547 14.144C133.163 13.568 132.971 12.8 132.971 11.84C132.971 10.9227 133.227 10.1013 133.739 9.376C134.251 8.65067 134.998 8.08533 135.979 7.68C136.982 7.25333 138.198 7.04 139.627 7.04C140.715 7.04 141.803 7.18933 142.891 7.488C143.979 7.76533 144.875 8.13867 145.579 8.608L144.587 10.432C143.841 9.92 143.041 9.55733 142.187 9.344C141.334 9.10933 140.481 8.992 139.627 8.992C138.113 8.992 136.993 9.25867 136.267 9.792C135.563 10.304 135.211 10.9653 135.211 11.776C135.211 12.416 135.403 12.9173 135.787 13.28C136.193 13.6427 136.715 13.9307 137.355 14.144C138.017 14.336 138.731 14.496 139.499 14.624C140.289 14.752 141.067 14.912 141.835 15.104C142.625 15.2747 143.339 15.52 143.979 15.84C144.641 16.1387 145.163 16.576 145.547 17.152C145.953 17.7067 146.155 18.4427 146.155 19.36C146.155 20.3413 145.878 21.1947 145.323 21.92C144.79 22.624 144.001 23.1787 142.955 23.584C141.931 23.968 140.683 24.16 139.211 24.16ZM155.636 24.16C154.058 24.16 152.842 23.7333 151.988 22.88C151.135 22.0267 150.708 20.8213 150.708 19.264V3.488H152.98V19.136C152.98 20.1173 153.226 20.8747 153.716 21.408C154.228 21.9413 154.954 22.208 155.892 22.208C156.895 22.208 157.727 21.92 158.388 21.344L159.188 22.976C158.74 23.3813 158.196 23.68 157.556 23.872C156.938 24.064 156.298 24.16 155.636 24.16ZM147.7 9.088V7.2H158.1V9.088H147.7Z" fill="white"/>
</svg>
