<svg width="18" height="18" viewBox="0 0 18 18" fill="none" xmlns="http://www.w3.org/2000/svg">
<path d="M1 17H0C0 17.2652 0.105358 17.5196 0.292895 17.7071C0.480433 17.8946 0.734788 18 1.00001 18L1 17ZM1 13L0.292892 12.2929C0.105357 12.4804 0 12.7348 0 13H1ZM11.8686 2.13134L11.1615 1.42423L11.1615 1.42423L11.8686 2.13134ZM14.1313 2.13134L13.4242 2.83845V2.83845L14.1313 2.13134ZM15.8686 3.8686L16.5757 3.16149V3.16149L15.8686 3.8686ZM15.8686 6.13134L15.1615 5.42423V5.42423L15.8686 6.13134ZM5 17L5.00001 18C5.26522 18 5.51957 17.8946 5.70711 17.7071L5 17ZM16.5369 4.691L17.4879 4.38198L16.5369 4.691ZM16.5369 5.30895L15.5858 4.99994L16.5369 5.30895ZM12.691 1.46313L12.382 0.512071V0.512072L12.691 1.46313ZM13.3091 1.46313L13.6181 0.512072V0.512071L13.3091 1.46313ZM9.70711 4.29289C9.31658 3.90236 8.68342 3.90236 8.29289 4.29289C7.90237 4.68341 7.90237 5.31658 8.29289 5.7071L9.70711 4.29289ZM12.2929 9.7071C12.6834 10.0976 13.3166 10.0976 13.7071 9.7071C14.0976 9.31658 14.0976 8.68341 13.7071 8.29289L12.2929 9.7071ZM2 17V13H0V17H2ZM1.70711 13.7071L12.5757 2.83845L11.1615 1.42423L0.292892 12.2929L1.70711 13.7071ZM13.4242 2.83845L15.1615 4.57571L16.5757 3.16149L14.8385 1.42423L13.4242 2.83845ZM15.1615 5.42423L4.29289 16.2929L5.70711 17.7071L16.5757 6.83845L15.1615 5.42423ZM4.99999 16L0.999994 16L1.00001 18L5.00001 18L4.99999 16ZM15.1615 4.57571C15.3712 4.78538 15.4854 4.90068 15.5611 4.98986C15.6292 5.07014 15.6058 5.06142 15.5858 5.00002L17.4879 4.38198C17.3938 4.09225 17.2342 3.87034 17.0858 3.6955C16.9449 3.52957 16.7621 3.34784 16.5757 3.16149L15.1615 4.57571ZM16.5757 6.83845C16.7621 6.6521 16.9449 6.47036 17.0858 6.30444C17.2342 6.12959 17.3938 5.90769 17.4879 5.61797L15.5858 4.99994C15.6058 4.93855 15.6292 4.92983 15.5611 5.01009C15.4854 5.09927 15.3712 5.21456 15.1615 5.42423L16.5757 6.83845ZM15.5858 5.00002L15.5858 4.99994L17.4879 5.61797C17.6184 5.21628 17.6184 4.78367 17.4879 4.38198L15.5858 5.00002ZM12.5757 2.83845C12.7854 2.62878 12.9007 2.5146 12.9899 2.4389C13.0701 2.37078 13.0614 2.39424 13 2.41418L12.382 0.512072C12.0923 0.606202 11.8704 0.765761 11.6955 0.914194C11.5296 1.05505 11.3479 1.23788 11.1615 1.42423L12.5757 2.83845ZM14.8385 1.42423C14.6522 1.23794 14.4704 1.0551 14.3046 0.914265C14.1298 0.765834 13.9079 0.606223 13.6181 0.512072L13.0001 2.41418C12.9386 2.39422 12.9299 2.37071 13.0101 2.43883C13.0993 2.51456 13.2145 2.62873 13.4242 2.83845L14.8385 1.42423ZM13 2.41418H13.0001L13.6181 0.512071C13.2164 0.381556 12.7837 0.381556 12.382 0.512071L13 2.41418ZM8.29289 5.7071L12.2929 9.7071L13.7071 8.29289L9.70711 4.29289L8.29289 5.7071Z" fill="white"/>
</svg>
