<svg width="23" height="13" viewBox="0 0 23 13" fill="none" xmlns="http://www.w3.org/2000/svg">
<path d="M6.70711 6.29289C6.31658 5.90237 5.68342 5.90237 5.29289 6.29289C4.90237 6.68342 4.90237 7.31658 5.29289 7.70711L6.70711 6.29289ZM10.9497 11.9497L10.2426 12.6569C10.6332 13.0474 11.2663 13.0474 11.6568 12.6569L10.9497 11.9497ZM22.2639 2.05026C22.6544 1.65975 22.6544 1.02658 22.2639 0.636048C21.8734 0.245515 21.2402 0.245502 20.8497 0.636018L22.2639 2.05026ZM1.75691 6.34319C1.36639 5.95266 0.733222 5.95266 0.342698 6.34319C-0.0478264 6.73371 -0.0478264 7.36688 0.342698 7.7574L1.75691 6.34319ZM5.29245 12.7071C5.68297 13.0977 6.31613 13.0977 6.70666 12.7071C7.09718 12.3166 7.09718 11.6835 6.70666 11.2929L5.29245 12.7071ZM17.3131 2.10054C17.7037 1.71002 17.7037 1.07685 17.3131 0.686326C16.9226 0.295802 16.2895 0.295802 15.8989 0.686326L17.3131 2.10054ZM10.5956 5.98963C10.2051 6.38015 10.2051 7.01332 10.5956 7.40384C10.9862 7.79436 11.6193 7.79436 12.0098 7.40384L10.5956 5.98963ZM5.29289 7.70711L10.2426 12.6569L11.6569 11.2426L6.70711 6.29289L5.29289 7.70711ZM11.6568 12.6569L22.2639 2.05026L20.8497 0.636018L10.2427 11.2426L11.6568 12.6569ZM0.342698 7.7574L5.29245 12.7071L6.70666 11.2929L1.75691 6.34319L0.342698 7.7574ZM15.8989 0.686326L10.5956 5.98963L12.0098 7.40384L17.3131 2.10054L15.8989 0.686326Z" fill="white"/>
</svg>
