<svg width="18" height="20" viewBox="0 0 18 20" fill="none" xmlns="http://www.w3.org/2000/svg">
<path d="M15 4H16C16 3.44772 15.5523 3 15 3V4ZM3 4V3C2.44772 3 2 3.44772 2 4H3ZM4.0918 18.782L4.54579 17.891L4.0918 18.782ZM3.21799 17.908L2.32698 18.362H2.32698L3.21799 17.908ZM14.7822 17.908L13.8912 17.454L14.7822 17.908ZM13.9078 18.782L13.4538 17.891L13.9078 18.782ZM1 3C0.447715 3 0 3.44772 0 4C0 4.55228 0.447715 5 1 5V3ZM17 5C17.5523 5 18 4.55228 18 4C18 3.44772 17.5523 3 17 3V5ZM13 4V5C13.5523 5 14 4.55228 14 4H13ZM5 4H4C4 4.55228 4.44772 5 5 5V4ZM12.8477 2.23462L13.7715 1.85194L12.8477 2.23462ZM11.7654 1.15224L12.1481 0.228361V0.228361L11.7654 1.15224ZM14 4V15.8H16V4H14ZM11.8002 18H6.2002V20H11.8002V18ZM4 15.8V4H2V15.8H4ZM3 5H15V3H3V5ZM6.2002 18C5.62367 18 5.25127 17.9992 4.96782 17.9761C4.69598 17.9538 4.59519 17.9161 4.54579 17.891L3.63781 19.673C4.01623 19.8658 4.40959 19.9371 4.80496 19.9694C5.18873 20.0008 5.65662 20 6.2002 20V18ZM2 15.8C2 16.3436 1.99922 16.8114 2.03057 17.195C2.06287 17.5904 2.13418 17.9836 2.32698 18.362L4.10899 17.454C4.0838 17.4046 4.04612 17.3039 4.02393 17.0322C4.00078 16.7488 4 16.3766 4 15.8H2ZM4.54579 17.891C4.35778 17.7952 4.20494 17.6424 4.10899 17.454L2.32698 18.362C2.61452 18.9264 3.07317 19.3853 3.63781 19.673L4.54579 17.891ZM14 15.8C14 16.3767 13.9993 16.7489 13.9762 17.0324C13.954 17.3041 13.9164 17.4047 13.8912 17.454L15.6732 18.362C15.8661 17.9835 15.9373 17.5902 15.9696 17.1949C16.0008 16.8113 16 16.3435 16 15.8H14ZM11.8002 20C12.3438 20 12.8115 20.0008 13.1951 19.9694C13.5904 19.9371 13.9835 19.8657 14.3618 19.673L13.4538 17.891C13.4043 17.9162 13.3036 17.9539 13.0321 17.9761C12.7489 17.9992 12.3767 18 11.8002 18V20ZM13.8912 17.454C13.7956 17.6417 13.6425 17.7948 13.4538 17.891L14.3618 19.673C14.9257 19.3856 15.3854 18.927 15.6732 18.362L13.8912 17.454ZM1 5H17V3H1V5ZM13 3H5V5H13V3ZM8 2H10V0H8V2ZM6 4C6 3.52038 6.00054 3.21074 6.01671 2.97375C6.03227 2.74575 6.05888 2.65891 6.07612 2.6173L4.22836 1.85194C4.09336 2.17787 4.04385 2.50778 4.02135 2.83761C3.99946 3.15846 4 3.54774 4 4H6ZM8 0C7.54773 0 7.15841 -0.00054121 6.8375 0.0213486C6.50766 0.0438484 6.17766 0.0933421 5.85169 0.228361L6.61706 2.07612C6.65864 2.0589 6.7455 2.03227 6.97362 2.01671C7.21067 2.00054 7.52038 2 8 2V0ZM6.07612 2.6173C6.17771 2.37205 6.37225 2.17752 6.61706 2.07612L5.85169 0.228361C5.11639 0.532935 4.53275 1.11707 4.22836 1.85194L6.07612 2.6173ZM14 4C14 3.54768 14.0005 3.15841 13.9786 2.83752C13.9561 2.50766 13.9065 2.1778 13.7715 1.85194L11.9238 2.6173C11.941 2.65898 11.9677 2.74587 11.9832 2.97384C11.9994 3.21079 12 3.52044 12 4H14ZM10 2C10.4796 2 10.7893 2.00054 11.0262 2.01671C11.2542 2.03227 11.3411 2.05888 11.3827 2.07612L12.1481 0.228361C11.8221 0.0933574 11.4922 0.0438537 11.1624 0.0213497C10.8415 -0.000541568 10.4523 0 10 0V2ZM13.7715 1.85194C13.4671 1.11693 12.8832 0.532877 12.1481 0.228361L11.3827 2.07612C11.6276 2.17758 11.8222 2.37219 11.9238 2.6173L13.7715 1.85194Z" fill="white"/>
</svg>
