<svg width="22" height="22" viewBox="0 0 22 22" fill="none" xmlns="http://www.w3.org/2000/svg">
<path d="M16.5 7.99903C15.6047 7.99865 14.7233 8.22009 13.9345 8.64356C13.8626 8.45399 13.7346 8.2908 13.5677 8.17567C13.4008 8.06055 13.2027 7.99894 13 7.99903H8.99997C8.86863 7.99896 8.73856 8.02477 8.6172 8.075C8.49584 8.12523 8.38557 8.19888 8.2927 8.29176C8.19982 8.38463 8.12617 8.4949 8.07594 8.61626C8.02571 8.73762 7.9999 8.86769 7.99997 8.99903V20.999C7.99989 21.1304 8.02571 21.2604 8.07594 21.3818C8.12616 21.5032 8.19982 21.6134 8.29269 21.7063C8.38557 21.7992 8.49584 21.8728 8.6172 21.9231C8.73856 21.9733 8.86863 21.9991 8.99997 21.999H13C13.1313 21.9991 13.2614 21.9733 13.3827 21.9231C13.5041 21.8728 13.6144 21.7992 13.7072 21.7063C13.8001 21.6134 13.8738 21.5032 13.924 21.3818C13.9742 21.2604 14 21.1304 14 20.999V15.499C14 15.2338 14.1053 14.9795 14.2929 14.7919C14.4804 14.6044 14.7348 14.499 15 14.499C15.2652 14.499 15.5195 14.6044 15.7071 14.7919C15.8946 14.9795 16 15.2338 16 15.499V20.999C15.9999 21.1304 16.0257 21.2604 16.0759 21.3818C16.1262 21.5032 16.1998 21.6134 16.2927 21.7063C16.3856 21.7992 16.4958 21.8728 16.6172 21.9231C16.7386 21.9733 16.8686 21.9991 17 21.999H21C21.1313 21.9991 21.2614 21.9733 21.3827 21.9231C21.5041 21.8728 21.6144 21.7992 21.7072 21.7063C21.8001 21.6134 21.8738 21.5032 21.924 21.3818C21.9742 21.2604 22 21.1304 22 20.999V13.499C21.9982 12.0409 21.4181 10.643 20.3871 9.61195C19.356 8.58089 17.9581 8.00084 16.5 7.99903ZM20 19.999H18V15.499C18 14.7034 17.6839 13.9403 17.1213 13.3777C16.5587 12.8151 15.7956 12.499 15 12.499C14.2043 12.499 13.4413 12.8151 12.8786 13.3777C12.316 13.9403 12 14.7034 12 15.499V19.999H9.99997V9.99903H12V10.7022C12.0001 10.9094 12.0645 11.1114 12.1844 11.2804C12.3043 11.4494 12.4737 11.577 12.6692 11.6456C12.8647 11.7142 13.0767 11.7204 13.2759 11.6634C13.4751 11.6063 13.6517 11.4889 13.7812 11.3272C14.23 10.7572 14.8456 10.3416 15.542 10.1384C16.2384 9.93521 16.9808 9.95455 17.6657 10.1937C18.3506 10.4329 18.9436 10.88 19.3621 11.4726C19.7806 12.0651 20.0036 12.7736 20 13.499V19.999ZM5.99997 7.99903H1.99997C1.86863 7.99896 1.73856 8.02477 1.6172 8.075C1.49584 8.12523 1.38557 8.19888 1.2927 8.29176C1.19982 8.38463 1.12617 8.4949 1.07594 8.61626C1.02571 8.73762 0.999896 8.86769 0.999971 8.99903V20.999C0.999895 21.1304 1.02571 21.2604 1.07594 21.3818C1.12616 21.5032 1.19982 21.6134 1.29269 21.7063C1.38557 21.7992 1.49584 21.8728 1.6172 21.9231C1.73856 21.9733 1.86863 21.9991 1.99997 21.999H5.99997C6.13131 21.9991 6.26138 21.9733 6.38274 21.9231C6.5041 21.8728 6.61437 21.7992 6.70725 21.7063C6.80012 21.6134 6.87378 21.5032 6.92401 21.3818C6.97423 21.2604 7.00005 21.1304 6.99997 20.999V8.99903C7.00005 8.86769 6.97423 8.73762 6.924 8.61626C6.87378 8.4949 6.80012 8.38463 6.70724 8.29176C6.61437 8.19888 6.5041 8.12523 6.38274 8.075C6.26138 8.02477 6.13131 7.99896 5.99997 7.99903ZM4.99997 19.999H2.99997V9.99903H4.99997V19.999ZM4.01462 0.542031C3.57698 0.515835 3.13859 0.578929 2.7261 0.727476C2.31361 0.876023 1.93564 1.10692 1.61519 1.40612C1.29473 1.70533 1.03849 2.06659 0.862029 2.46793C0.685573 2.86928 0.592594 3.30232 0.588747 3.74072C0.584901 4.17913 0.670268 4.61374 0.839656 5.01811C1.00904 5.42249 1.25891 5.78819 1.57407 6.09297C1.88922 6.39775 2.26308 6.63525 2.6729 6.79101C3.08272 6.94677 3.51994 7.01755 3.95797 6.99903H3.98629C4.42509 7.02509 4.86459 6.96141 5.27795 6.81188C5.6913 6.66235 6.06983 6.43011 6.39039 6.12934C6.71096 5.82858 6.96683 5.46561 7.14238 5.06261C7.31793 4.65962 7.40946 4.22506 7.41139 3.78549C7.41332 3.34593 7.3256 2.91058 7.15359 2.50606C6.98159 2.10154 6.7289 1.73634 6.41099 1.43278C6.09307 1.12921 5.7166 0.893656 5.30457 0.740503C4.89255 0.587351 4.45362 0.519818 4.01461 0.542031H4.01462ZM3.9863 4.99903H3.95797C3.78504 5.02003 3.60961 5.00381 3.44346 4.95146C3.27731 4.89911 3.12427 4.81184 2.99461 4.6955C2.86495 4.57915 2.76167 4.43643 2.69168 4.27691C2.6217 4.11738 2.58664 3.94473 2.58884 3.77054C2.58884 3.02444 3.14841 2.54202 4.01462 2.54202C4.18932 2.51873 4.36698 2.53315 4.53564 2.58431C4.70429 2.63546 4.86003 2.72216 4.99236 2.83857C5.12468 2.95499 5.23053 3.0984 5.30276 3.25916C5.37499 3.41992 5.41193 3.5943 5.4111 3.77054C5.4111 4.51663 4.85153 4.99903 3.9863 4.99903Z" fill="white"/>
</svg>
