<svg width="16" height="13" viewBox="0 0 16 13" fill="none" xmlns="http://www.w3.org/2000/svg">
<path d="M5 10C4.44772 10 4 10.4477 4 11C4 11.5523 4.44772 12 5 12V10ZM15 12C15.5523 12 16 11.5523 16 11C16 10.4477 15.5523 10 15 10V12ZM1.00195 11H2.00195C2.00195 10.4477 1.55424 10 1.00195 10V11ZM1.00195 11.002L1.00928 12.002C1.55869 11.9979 2.00195 11.5514 2.00195 11.002H1.00195ZM1 11.002H0C0 11.2685 0.106365 11.524 0.295487 11.7117C0.48461 11.8994 0.740845 12.0039 1.00732 12.002L1 11.002ZM1 11V10C0.447715 10 0 10.4477 0 11H1ZM5 5C4.44772 5 4 5.44772 4 6C4 6.55228 4.44772 7 5 7V5ZM15 7C15.5523 7 16 6.55228 16 6C16 5.44772 15.5523 5 15 5V7ZM1.00195 6H2.00195C2.00195 5.44772 1.55424 5 1.00195 5V6ZM1.00195 6.002L1.00928 7.00197C1.55869 6.99795 2.00195 6.55143 2.00195 6.002H1.00195ZM1 6.00201H0C0 6.2685 0.106365 6.52396 0.295487 6.71171C0.48461 6.89945 0.740845 7.00394 1.00732 7.00199L1 6.00201ZM1 6V5C0.447715 5 0 5.44772 0 6H1ZM5 0C4.44772 0 4 0.447715 4 1C4 1.55228 4.44772 2 5 2V0ZM15 2C15.5523 2 16 1.55228 16 1C16 0.447715 15.5523 0 15 0V2ZM1.00195 1H2.00195C2.00195 0.447715 1.55424 0 1.00195 0V1ZM1.00195 1.002L1.0092 2.00197C1.55864 1.99799 2.00195 1.55146 2.00195 1.002H1.00195ZM1 1.00201H0C0 1.26849 0.106355 1.52394 0.295461 1.71168C0.484568 1.89942 0.740784 2.00392 1.00725 2.00199L1 1.00201ZM1 1V0C0.447715 0 0 0.447715 0 1L1 1ZM5 12H15V10H5V12ZM0.00195312 11V11.002H2.00195V11H0.00195312ZM0.994629 10.002L0.992676 10.002L1.00732 12.002L1.00928 12.002L0.994629 10.002ZM2 11.002V11H0V11.002H2ZM1 12H1.00195V10H1V12ZM5 7H15V5H5V7ZM0.00195312 6V6.002H2.00195V6H0.00195312ZM0.994629 5.00203L0.992676 5.00204L1.00732 7.00199L1.00928 7.00197L0.994629 5.00203ZM2 6.00201V6H0V6.00201H2ZM1 7H1.00195V5H1V7ZM5 2H15V0H5V2ZM0.00195312 1V1.002H2.00195V1H0.00195312ZM0.994703 0.00202626L0.99275 0.00204045L1.00725 2.00199L1.0092 2.00197L0.994703 0.00202626ZM2 1.00201V1H0V1.00201H2ZM1 2H1.00195V0H1V2Z" fill="white"/>
</svg>
